<svg xmlns="http://www.w3.org/2000/svg" viewBox="0 0 100 100" width="100" height="100" fill="none"><rect width="100" height="100" rx="23" fill="#0C0F16"/><g transform="translate(23,15) scale(0.56)"><defs><linearGradient id="gF" gradientUnits="userSpaceOnUse" x1="0" y1="92" x2="0" y2="5"><stop offset="0" stop-color="#E6195E"/><stop offset="0.55" stop-color="#FF4D5E"/><stop offset="1" stop-color="#FFB23E"/></linearGradient></defs><path d="M51 5 C54 19 60 27 68 38 C77 50 80 64 72 77 C65 88 57 92 49 92 C40 92 31 88 26 78 C18 65 22 50 32 39 C40 30 46 21 51 5 Z M32.20 54.80 H67.80 A3.20 3.20 0 0 1 67.80 61.20 H32.20 A3.20 3.20 0 0 1 32.20 54.80 Z M34.20 67.80 H65.80 A3.20 3.20 0 0 1 65.80 74.20 H34.20 A3.20 3.20 0 0 1 34.20 67.80 Z" fill="url(#gF)" fill-rule="evenodd"/></g></svg>