<svg xmlns="http://www.w3.org/2000/svg" viewBox="0 0 464 100" width="464" height="100" fill="none"><g transform="translate(10,13) scale(0.74)"><defs><linearGradient id="gD" gradientUnits="userSpaceOnUse" x1="0" y1="92" x2="0" y2="5"><stop offset="0" stop-color="#E6195E"/><stop offset="0.55" stop-color="#FF4D5E"/><stop offset="1" stop-color="#FFB23E"/></linearGradient></defs><path d="M51 5 C54 19 60 27 68 38 C77 50 80 64 72 77 C65 88 57 92 49 92 C40 92 31 88 26 78 C18 65 22 50 32 39 C40 30 46 21 51 5 Z M34.00 49.50 H66.00 A2.50 2.50 0 0 1 66.00 54.50 H34.00 A2.50 2.50 0 0 1 34.00 49.50 Z M29.20 60.30 H70.80 A2.70 2.70 0 0 1 70.80 65.70 H29.20 A2.70 2.70 0 0 1 29.20 60.30 Z M32.00 71.50 H68.00 A2.50 2.50 0 0 1 68.00 76.50 H32.00 A2.50 2.50 0 0 1 32.00 71.50 Z" fill="url(#gD)" fill-rule="evenodd"/></g><path d="M107.3 67.75V32.75H129.3V38.75H113.9V47.2H128.1V53.2H113.9V67.75Z M134.7 67.75V32.75H141.0V67.75Z M156.2 68.45Q153.55 68.45 151.45 67.525Q149.35 66.6 148.125 64.82499999999999Q146.9 63.05 146.9 60.5Q146.9 57.95 148.125 56.225Q149.35 54.5 151.52499999999998 53.625Q153.7 52.75 156.5 52.75H163.3V51.349999999999994Q163.3 49.599999999999994 162.2 48.474999999999994Q161.1 47.349999999999994 158.7 47.349999999999994Q156.35 47.349999999999994 155.2 48.425Q154.05 49.5 153.7 51.2L147.9 49.25Q148.5 47.349999999999994 149.825 45.775Q151.15 44.2 153.375 43.225Q155.6 42.25 158.8 42.25Q163.7 42.25 166.55 44.7Q169.4 47.15 169.4 51.8V61.05Q169.4 62.55 170.8 62.55H172.8V67.75H168.6Q166.75 67.75 165.55 66.85Q164.35 65.95 164.35 64.45V64.4H163.4Q163.2 65.0 162.5 65.975Q161.8 66.95 160.3 67.7Q158.8 68.45 156.2 68.45ZM157.3 63.35Q159.95 63.35 161.625 61.875Q163.3 60.4 163.3 57.95V57.45H156.95Q155.2 57.45 154.2 58.2Q153.2 58.95 153.2 60.3Q153.2 61.65 154.25 62.5Q155.3 63.35 157.3 63.35Z M177.9 67.75V42.95H184.1V45.75H185.0Q185.55 44.25 186.825 43.55Q188.1 42.849999999999994 189.8 42.849999999999994H192.8V48.45H189.70000000000002Q187.3 48.45 185.75 49.725Q184.20000000000002 51.0 184.20000000000002 53.65V67.75Z M209.50000000000003 68.45Q205.8 68.45 202.97500000000002 66.875Q200.15 65.3 198.57500000000002 62.425Q197.00000000000003 59.55 197.00000000000003 55.65V55.05Q197.00000000000003 51.15 198.55 48.275Q200.10000000000002 45.4 202.90000000000003 43.825Q205.70000000000002 42.25 209.4 42.25Q213.05 42.25 215.75 43.875Q218.45000000000002 45.5 219.95000000000002 48.375Q221.45000000000002 51.25 221.45000000000002 55.05V57.2H203.4Q203.50000000000003 59.75 205.3 61.35Q207.10000000000002 62.95 209.70000000000002 62.95Q212.35000000000002 62.95 213.60000000000002 61.8Q214.85000000000002 60.65 215.50000000000003 59.25L220.65000000000003 61.95Q219.95000000000002 63.25 218.625 64.775Q217.3 66.3 215.10000000000002 67.375Q212.9 68.45 209.50000000000003 68.45ZM203.45000000000002 52.5H215.05Q214.85000000000002 50.349999999999994 213.32500000000002 49.05Q211.8 47.75 209.35000000000002 47.75Q206.8 47.75 205.3 49.05Q203.8 50.349999999999994 203.45000000000002 52.5Z" fill="#FFFFFF"/><path d="M242.70000000000002 67.75V32.75H257.40000000000003Q260.65000000000003 32.75 263.125 33.875Q265.6 35.0 266.975 37.1Q268.35 39.2 268.35 42.099999999999994V42.65Q268.35 45.95 266.775 47.925Q265.2 49.9 262.95 50.7V51.5Q264.85 51.599999999999994 266.0 52.775Q267.15000000000003 53.95 267.15000000000003 56.15V67.75H261.7V56.9Q261.7 55.55 261.0 54.75Q260.3 53.95 258.75 53.95H248.10000000000002V67.75ZM248.10000000000002 49.05H256.8Q259.7 49.05 261.3 47.574999999999996Q262.90000000000003 46.099999999999994 262.90000000000003 43.55V43.15Q262.90000000000003 40.599999999999994 261.32500000000005 39.125Q259.75 37.65 256.8 37.65H248.10000000000002Z M286.25000000000006 68.45Q282.50000000000006 68.45 279.70000000000005 66.875Q276.90000000000003 65.3 275.32500000000005 62.425Q273.75000000000006 59.55 273.75000000000006 55.75V55.15Q273.75000000000006 51.3 275.30000000000007 48.425Q276.85 45.55 279.625 43.974999999999994Q282.40000000000003 42.4 286.05 42.4Q289.6 42.4 292.27500000000003 43.974999999999994Q294.95000000000005 45.55 296.45000000000005 48.349999999999994Q297.95000000000005 51.15 297.95000000000005 54.9V56.85H279.00000000000006Q279.1 60.1 281.17500000000007 62.025000000000006Q283.25000000000006 63.95 286.35 63.95Q289.25000000000006 63.95 290.725 62.650000000000006Q292.20000000000005 61.35 293.00000000000006 59.65L297.25000000000006 61.85Q296.55 63.25 295.225 64.8Q293.90000000000003 66.35 291.75 67.4Q289.6 68.45 286.25000000000006 68.45ZM279.05 52.9H292.70000000000005Q292.50000000000006 50.099999999999994 290.70000000000005 48.525Q288.90000000000003 46.95 286.00000000000006 46.95Q283.1 46.95 281.27500000000003 48.525Q279.45000000000005 50.099999999999994 279.05 52.9Z M303.45000000000005 55.55V54.8Q303.45000000000005 50.9 305.02500000000003 48.15Q306.6 45.4 309.20000000000005 43.9Q311.8 42.4 314.90000000000003 42.4Q318.5 42.4 320.425 43.75Q322.35 45.099999999999994 323.25 46.65H324.05V43.099999999999994H329.05V72.8Q329.05 75.05 327.725 76.4Q326.40000000000003 77.75 324.1 77.75H307.5V73.25H322.5Q323.95000000000005 73.25 323.95000000000005 71.75V63.9H323.15000000000003Q322.6 64.8 321.6 65.75Q320.6 66.7 318.975 67.30000000000001Q317.35 67.9 314.90000000000003 67.9Q311.8 67.9 309.175 66.42500000000001Q306.55 64.95 305.0 62.175Q303.45000000000005 59.4 303.45000000000005 55.55ZM316.3 63.4Q319.65000000000003 63.4 321.82500000000005 61.275Q324.0 59.15 324.0 55.4V54.95Q324.0 51.099999999999994 321.85 49.025Q319.70000000000005 46.95 316.3 46.95Q313.0 46.95 310.82500000000005 49.025Q308.65000000000003 51.099999999999994 308.65000000000003 54.95V55.4Q308.65000000000003 59.15 310.82500000000005 61.275Q313.0 63.4 316.3 63.4Z M337.15000000000003 67.75V43.099999999999994H342.3V67.75ZM339.75 39.75Q338.25 39.75 337.225 38.775Q336.20000000000005 37.8 336.20000000000005 36.25Q336.20000000000005 34.699999999999996 337.225 33.724999999999994Q338.25 32.75 339.75 32.75Q341.3 32.75 342.3 33.724999999999994Q343.3 34.699999999999996 343.3 36.25Q343.3 37.8 342.3 38.775Q341.3 39.75 339.75 39.75Z M360.55 68.45Q355.85 68.45 352.75 66.35Q349.65000000000003 64.25 348.95000000000005 60.0L353.75000000000006 58.85Q354.15000000000003 60.9 355.1 62.099999999999994Q356.05 63.3 357.475 63.8Q358.90000000000003 64.3 360.55 64.3Q363.00000000000006 64.3 364.32500000000005 63.349999999999994Q365.65000000000003 62.4 365.65000000000003 60.9Q365.65000000000003 59.4 364.40000000000003 58.7Q363.15000000000003 58.0 360.70000000000005 57.55L359.00000000000006 57.25Q356.50000000000006 56.8 354.45000000000005 55.95Q352.40000000000003 55.1 351.20000000000005 53.6Q350.00000000000006 52.1 350.00000000000006 49.75Q350.00000000000006 46.25 352.6 44.325Q355.20000000000005 42.4 359.50000000000006 42.4Q363.65000000000003 42.4 366.32500000000005 44.275Q369.00000000000006 46.15 369.8 49.349999999999994L365.00000000000006 50.7Q364.55 48.45 363.1 47.525Q361.65000000000003 46.599999999999994 359.50000000000006 46.599999999999994Q357.40000000000003 46.599999999999994 356.20000000000005 47.375Q355.00000000000006 48.15 355.00000000000006 49.55Q355.00000000000006 51.05 356.17500000000007 51.75Q357.35 52.45 359.35 52.8L361.1 53.1Q363.75000000000006 53.55 365.95000000000005 54.349999999999994Q368.15000000000003 55.15 369.42500000000007 56.65Q370.70000000000005 58.15 370.70000000000005 60.65Q370.70000000000005 64.35 367.95000000000005 66.4Q365.20000000000005 68.45 360.55 68.45Z M386.45000000000005 67.75Q384.20000000000005 67.75 382.875 66.4Q381.55 65.05 381.55 62.8V47.45H374.75000000000006V43.099999999999994H381.55V34.949999999999996H386.70000000000005V43.099999999999994H394.05V47.45H386.70000000000005V61.9Q386.70000000000005 63.4 388.1 63.4H393.25000000000006V67.75Z M400.6 67.75V43.099999999999994H405.65000000000003V46.0H406.45Q407.05 44.45 408.375 43.725Q409.7 43.0 411.65000000000003 43.0H414.6V47.65H411.45Q408.95 47.65 407.35 49.025Q405.75 50.4 405.75 53.25V67.75Z M423.3 77.75V73.25H437.05Q438.45000000000005 73.25 438.45000000000005 71.75V64.15H437.65000000000003Q437.20000000000005 65.15 436.27500000000003 66.075Q435.35 67.0 433.80000000000007 67.6Q432.25000000000006 68.2 429.90000000000003 68.2Q427.1 68.2 424.90000000000003 66.95Q422.70000000000005 65.7 421.45000000000005 63.400000000000006Q420.20000000000005 61.1 420.20000000000005 57.95V43.099999999999994H425.35V57.55Q425.35 60.75 426.95000000000005 62.275Q428.55 63.8 431.40000000000003 63.8Q434.55 63.8 436.475 61.7Q438.40000000000003 59.6 438.40000000000003 55.6V43.099999999999994H443.55V72.8Q443.55 75.05 442.225 76.4Q440.90000000000003 77.75 438.6 77.75Z" fill="#8B95A7"/></svg>